<svg width="38" height="38" viewBox="0 0 38 38" fill="none" xmlns="http://www.w3.org/2000/svg">
<path d="M18.75 0C21.2123 0 23.6505 0.484983 25.9253 1.42726C28.2002 2.36953 30.2672 3.75065 32.0083 5.49175C33.7493 7.23285 35.1305 9.29983 36.0727 11.5747C37.015 13.8495 37.5 16.2877 37.5 18.75C37.5 23.7228 35.5246 28.4919 32.0083 32.0083C28.4919 35.5246 23.7228 37.5 18.75 37.5C16.2877 37.5 13.8495 37.015 11.5747 36.0727C9.29983 35.1305 7.23285 33.7493 5.49175 32.0083C1.97544 28.4919 0 23.7228 0 18.75C0 13.7772 1.97544 9.00805 5.49175 5.49175C9.00805 1.97544 13.7772 0 18.75 0ZM18.75 3.75C11.1 3.75 4.78125 9.46875 3.8625 16.875H11.4938C12.3188 13.6312 15.2625 11.25 18.75 11.25C22.2375 11.25 25.1813 13.6312 26.0063 16.875H33.6375C32.7188 9.46875 26.4 3.75 18.75 3.75ZM18.75 33.75C26.4 33.75 32.7188 28.0312 33.6375 20.625H26.0063C25.1813 23.8688 22.2375 26.25 18.75 26.25C15.2625 26.25 12.3188 23.8688 11.4938 20.625H3.8625C4.78125 28.0312 11.1 33.75 18.75 33.75ZM18.75 15C17.7554 15 16.8016 15.3951 16.0984 16.0984C15.3951 16.8016 15 17.7554 15 18.75C15 19.7446 15.3951 20.6984 16.0984 21.4016C16.8016 22.1049 17.7554 22.5 18.75 22.5C19.7446 22.5 20.6984 22.1049 21.4016 21.4016C22.1049 20.6984 22.5 19.7446 22.5 18.75C22.5 17.7554 22.1049 16.8016 21.4016 16.0984C20.6984 15.3951 19.7446 15 18.75 15Z" fill="#242424"/>
</svg>
